<svg xmlns="http://www.w3.org/2000/svg" xmlns:xlink="http://www.w3.org/1999/xlink" viewBox="0 0 171.7 233.48">
<defs>

<style>.cls-1{fill:#fafafa;}.cls-2{fill:#c8c8c8;}.cls-3{fill:url(#linear-gradient);}.cls-4{fill:#fff7bb;}.cls-5{fill:#626263;}.cls-6{fill:#1fce00;}
#shadow {filter: drop-shadow(rgb(0, 0, 0) 3px 3px 3px);}
</style>

<linearGradient id="linear-gradient" x1="30.57" y1="92.4" x2="141.34" y2="203.95" gradientUnits="userSpaceOnUse">
<stop offset="0" stop-color="#b8681d"/>
<stop offset="1" stop-color="#ece9d8"/>
</linearGradient>

</defs>

<title>ITEM_TODO</title>

<g id="icon_item" data-name="icon item">
<path class="cls-1" d="M65.7,258.29a9.93,9.93,0,0,1-9.92-9.92V34.73a9.93,9.93,0,0,1,9.92-9.92H168.1V71.43a12.78,12.78,0,0,0,12.76,12.76h46.62V248.37a9.93,9.93,0,0,1-9.92,9.92Z" transform="translate(-55.78 -24.81)"/>
<path class="cls-2" d="M180.86,77.1h41.52a2.84,2.84,0,0,0,2-4.84L180,27.9a2.84,2.84,0,0,0-4.84,2V71.43A5.68,5.68,0,0,0,180.86,77.1Z" transform="translate(-55.78 -24.81)"/>
<path d="M80.89,58.11a3.41,3.41,0,1,1,0-6.81H143a3.41,3.41,0,0,1,0,6.81Z" transform="translate(-55.78 -24.81)"/>
<path d="M80.89,93.37a3.41,3.41,0,1,1,0-6.81H143a3.41,3.41,0,0,1,0,6.81Z" transform="translate(-55.78 -24.81)"/>
</g>

<g id="todo">
<rect id="shadow" class="cls-3" x="22.07" y="84.29" width="127.56" height="127.56" rx="28.35" ry="28.35"/>
<path id="shadow" class="cls-4" d="M113.62,132a8.64,8.64,0,0,0-8.63,8.63V209.1a8.64,8.64,0,0,0,8.63,8.63h55.64a8.64,8.64,0,0,0,8.63-8.63V140.55a8.57,8.57,0,0,0-8.55-8.55Z" transform="translate(-55.78 -24.81)"/>
<path d="M156.42,128.85h12.92a11.72,11.72,0,0,1,11.7,11.7V209.1a11.79,11.79,0,0,1-11.78,11.78H113.62a11.8,11.8,0,0,1-11.78-11.78V140.63a11.79,11.79,0,0,1,11.78-11.78h12.74V132H113.62a8.64,8.64,0,0,0-8.63,8.63V209.1a8.64,8.64,0,0,0,8.63,8.63h55.64a8.64,8.64,0,0,0,8.63-8.63V140.55a8.57,8.57,0,0,0-8.55-8.55H156.42Z" transform="translate(-55.78 -24.81)"/>
<path class="cls-5" d="M126.53,163.31H116.05a1.57,1.57,0,0,1-1.57-1.58V151.26a1.57,1.57,0,0,1,1.57-1.58h10.48a1.57,1.57,0,0,1,1.57,1.58v10.47A1.57,1.57,0,0,1,126.53,163.31Zm-8.9-3.15H125v-7.33h-7.32Z" transform="translate(-55.78 -24.81)"/>
<rect x="136.21" y="154.96" width="33.32" height="3.06" rx="1.53" ry="1.53" transform="translate(249.96 288.18) rotate(-180)"/>
<path class="cls-6" d="M120.79,162.07a1.56,1.56,0,0,1-1.24-.61,21.12,21.12,0,0,0-5.37-4.75,1.57,1.57,0,1,1,1.48-2.78,22.72,22.72,0,0,1,4.78,3.79c1.87-3.38,5.08-8.27,7.23-10a1.58,1.58,0,0,1,2,2.43c-2.06,1.69-6.14,8.12-7.45,11a1.54,1.54,0,0,1-1.25.92Z" transform="translate(-55.78 -24.81)"/>
<path class="cls-5" d="M126.53,212.31H116.05a1.57,1.57,0,0,1-1.57-1.57V200.26a1.57,1.57,0,0,1,1.57-1.57h10.48a1.57,1.57,0,0,1,1.57,1.57v10.48A1.57,1.57,0,0,1,126.53,212.31Zm-8.9-3.15H125v-7.32h-7.32Z" transform="translate(-55.78 -24.81)"/>
<rect x="136.21" y="203.97" width="33.32" height="3.06" rx="1.53" ry="1.53" transform="translate(249.96 386.19) rotate(-180)"/>
<path class="cls-5" d="M126.53,196H116.05a1.57,1.57,0,0,1-1.57-1.58V183.93a1.57,1.57,0,0,1,1.57-1.58h10.48a1.57,1.57,0,0,1,1.57,1.58V194.4A1.57,1.57,0,0,1,126.53,196Zm-8.9-3.15H125V185.5h-7.32Z" transform="translate(-55.78 -24.81)"/>
<rect x="136.21" y="187.63" width="33.32" height="3.06" rx="1.53" ry="1.53" transform="translate(249.96 353.52) rotate(-180)"/>
<path class="cls-6" d="M120.79,194.74a1.54,1.54,0,0,1-1.24-.62,21.25,21.25,0,0,0-5.37-4.74,1.57,1.57,0,1,1,1.48-2.78,22.72,22.72,0,0,1,4.78,3.79c1.87-3.38,5.08-8.27,7.23-10a1.58,1.58,0,1,1,2,2.43c-2.06,1.69-6.14,8.11-7.45,11a1.56,1.56,0,0,1-1.25.92Z" transform="translate(-55.78 -24.81)"/>
<path class="cls-5" d="M126.53,179.64H116.05a1.57,1.57,0,0,1-1.57-1.57V167.59a1.57,1.57,0,0,1,1.57-1.57h10.48a1.57,1.57,0,0,1,1.57,1.57v10.48A1.57,1.57,0,0,1,126.53,179.64Zm-8.9-3.15H125v-7.32h-7.32Z" transform="translate(-55.78 -24.81)"/>
<rect x="136.21" y="171.3" width="33.32" height="3.06" rx="1.53" ry="1.53" transform="translate(249.96 320.85) rotate(-180)"/>
<path class="cls-6" d="M120.79,178.41a1.57,1.57,0,0,1-1.24-.62,21.52,21.52,0,0,0-5.37-4.75,1.57,1.57,0,1,1,1.48-2.78,23.06,23.06,0,0,1,4.78,3.79c1.87-3.38,5.08-8.26,7.23-10a1.58,1.58,0,0,1,2,2.43c-2.06,1.7-6.14,8.12-7.45,11a1.57,1.57,0,0,1-1.25.93Z" transform="translate(-55.78 -24.81)"/>
<path d="M153.85,126.65h-5.77a6.82,6.82,0,0,0-13.28,0H129a4.13,4.13,0,0,0-4.13,4.13V141A4.13,4.13,0,0,0,129,145.1h24.82A4.13,4.13,0,0,0,158,141v-10.2A4.13,4.13,0,0,0,153.85,126.65Zm-12.41-2.11a3.69,3.69,0,1,1-3.68,3.69A3.69,3.69,0,0,1,141.44,124.54ZM154.83,141a1,1,0,0,1-1,1H129a1,1,0,0,1-1-1v-10.2a1,1,0,0,1,1-1h5.77a6.82,6.82,0,0,0,13.28,0h5.77a1,1,0,0,1,1,1Z" transform="translate(-55.78 -24.81)"/>
<path class="cls-1" d="M154.83,141a1,1,0,0,1-1,1H129a1,1,0,0,1-1-1v-10.2a1,1,0,0,1,1-1h5.77a6.82,6.82,0,0,0,13.28,0h5.77a1,1,0,0,1,1,1Z" transform="translate(-55.78 -24.81)"/>
</g>
</svg>