<svg xmlns="http://www.w3.org/2000/svg" xmlns:xlink="http://www.w3.org/1999/xlink" viewBox="0 0 283.46 283.46">
<defs>

<style>.cls-1{fill:url(#linear-gradient);}.cls-2{fill:#fff7bb;}.cls-3{fill:#626263;}.cls-4{fill:#1fce00;}.cls-5{fill:#fafafa;}
#shadow {filter: drop-shadow(rgb(0, 0, 0) 5px 5px 5px);}
</style>

<linearGradient id="linear-gradient" x1="0.5" y1="-0.5" x2="283.5" y2="284.5" gradientUnits="userSpaceOnUse"><stop offset="0" stop-color="#b8681d"/><stop offset="1" stop-color="#ece9d8"/></linearGradient>

</defs>

<title>todo</title>

<g id="Layer_2" data-name="Layer 2">
<g id="background_05" data-name="background 05">
<rect class="cls-1" width="283.46" height="283.46"/>
</g>
<g id="shadow" >
<path class="cls-2" d="M79.49,50.89A19.19,19.19,0,0,0,60.32,70.07V222.21a19.19,19.19,0,0,0,19.17,19.18H203.14a19.2,19.2,0,0,0,19.18-19.18V69.89a19,19,0,0,0-19-19Z"/>
<path d="M174.61,43.89h28.71a26,26,0,0,1,26,26V222.21a26.21,26.21,0,0,1-26.18,26.18H79.49a26.2,26.2,0,0,1-26.17-26.18V70.07A26.2,26.2,0,0,1,79.49,43.89h28.3v7H79.49A19.19,19.19,0,0,0,60.32,70.07V222.21a19.19,19.19,0,0,0,19.17,19.18H203.14a19.2,19.2,0,0,0,19.18-19.18V69.89a19,19,0,0,0-19-19H174.61Z"/>
</g>

<g id="list">
<path class="cls-3" d="M108.17,120.46H84.9a3.5,3.5,0,0,1-3.5-3.5V93.69a3.5,3.5,0,0,1,3.5-3.5h23.27a3.5,3.5,0,0,1,3.5,3.5V117A3.5,3.5,0,0,1,108.17,120.46Zm-19.77-7h16.27V97.19H88.4Z"/>
<rect class="cls-3" x="129.69" y="101.92" width="74.05" height="6.8" rx="3.4" ry="3.4" transform="translate(333.42 210.65) rotate(-180)"/>
<path class="cls-4" d="M95.44,117.71a3.53,3.53,0,0,1-2.78-1.36,47.41,47.41,0,0,0-11.93-10.56A3.5,3.5,0,1,1,84,99.61,51.5,51.5,0,0,1,94.65,108c4.15-7.51,11.29-18.36,16.07-22.31a3.5,3.5,0,0,1,4.46,5.4c-4.57,3.77-13.65,18-16.55,24.51a3.48,3.48,0,0,1-2.79,2A2.68,2.68,0,0,1,95.44,117.71Z"/>
<path class="cls-3" d="M108.17,229.36H84.9a3.5,3.5,0,0,1-3.5-3.5V202.59a3.5,3.5,0,0,1,3.5-3.5h23.27a3.49,3.49,0,0,1,3.5,3.5v23.27A3.5,3.5,0,0,1,108.17,229.36Zm-19.77-7h16.27V206.09H88.4Z"/>
<rect class="cls-3" x="129.69" y="210.82" width="74.05" height="6.8" rx="3.4" ry="3.4" transform="translate(333.42 428.45) rotate(-180)"/>
<path class="cls-3" d="M108.17,193.06H84.9a3.5,3.5,0,0,1-3.5-3.5V166.29a3.5,3.5,0,0,1,3.5-3.5h23.27a3.49,3.49,0,0,1,3.5,3.5v23.27A3.5,3.5,0,0,1,108.17,193.06Zm-19.77-7h16.27V169.79H88.4Z"/>
<rect class="cls-3" x="129.69" y="174.52" width="74.05" height="6.8" rx="3.4" ry="3.4" transform="translate(333.42 355.85) rotate(180)"/>
<path class="cls-4" d="M95.44,190.31a3.51,3.51,0,0,1-2.78-1.37,47.54,47.54,0,0,0-11.93-10.55A3.5,3.5,0,1,1,84,172.21a51.5,51.5,0,0,1,10.63,8.43c4.15-7.51,11.29-18.36,16.07-22.31a3.5,3.5,0,0,1,4.46,5.4c-4.57,3.77-13.65,18-16.55,24.51a3.48,3.48,0,0,1-2.79,2A2.68,2.68,0,0,1,95.44,190.31Z"/>
<path class="cls-3" d="M108.17,156.76H84.9a3.5,3.5,0,0,1-3.5-3.5V130a3.5,3.5,0,0,1,3.5-3.5h23.27a3.49,3.49,0,0,1,3.5,3.5v23.27A3.5,3.5,0,0,1,108.17,156.76Zm-19.77-7h16.27V133.49H88.4Z"/>
<rect class="cls-3" x="129.69" y="138.22" width="74.05" height="6.8" rx="3.4" ry="3.4" transform="translate(333.42 283.25) rotate(180)"/>
<path class="cls-4" d="M95.44,154a3.53,3.53,0,0,1-2.78-1.36,47.61,47.61,0,0,0-11.93-10.56A3.5,3.5,0,1,1,84,135.91a51.5,51.5,0,0,1,10.63,8.43C98.8,136.83,105.94,126,110.72,122a3.5,3.5,0,0,1,4.46,5.4c-4.57,3.77-13.65,18-16.55,24.51A3.48,3.48,0,0,1,95.84,154,2.68,2.68,0,0,1,95.44,154Z"/>
</g>

<g id="top">
<path d="M168.9,39H156.08a15.17,15.17,0,0,0-29.53,0H113.73a9.17,9.17,0,0,0-9.16,9.17V70.84A9.18,9.18,0,0,0,113.73,80H168.9a9.19,9.19,0,0,0,9.17-9.17V48.18A9.18,9.18,0,0,0,168.9,39Zm-27.58-4.69a8.19,8.19,0,1,1-8.19,8.19A8.19,8.19,0,0,1,141.32,34.32Zm29.75,36.52A2.21,2.21,0,0,1,168.9,73H113.73a2.2,2.2,0,0,1-2.16-2.17V48.18A2.19,2.19,0,0,1,113.73,46h12.82a15.17,15.17,0,0,0,29.53,0H168.9a2.2,2.2,0,0,1,2.17,2.17Z"/>
<path class="cls-5" d="M171.07,70.84A2.21,2.21,0,0,1,168.9,73H113.73a2.2,2.2,0,0,1-2.16-2.17V48.18A2.19,2.19,0,0,1,113.73,46h12.82a15.17,15.17,0,0,0,29.53,0H168.9a2.2,2.2,0,0,1,2.17,2.17Z"/>
</g>
</g>
</svg>